# This file uses centimeters as units for non-parametric coordinates.

mtllib InsideCorner_HP.mtl
g default
v 0.032653 0.530605 -2.995802
v 0.028283 0.511530 -2.999995
v 0.009325 0.511732 -2.992294
v 0.001467 0.511915 -2.973697
v 0.005617 0.530607 -2.969179
v 0.017442 0.547208 -2.956920
v 0.025407 0.547222 -2.976088
v 0.044617 0.547222 -2.984028
v 0.036809 0.007842 -2.991939
v 0.057185 0.000005 -2.972172
v 0.037818 0.000005 -2.963751
v 0.029784 0.000005 -2.943420
v 0.009629 0.007838 -2.964365
v 0.001467 0.026766 -2.973235
v 0.009314 0.026764 -2.992158
v 0.028241 0.026766 -2.999995
v 1.020558 0.007925 -2.009574
v 1.028433 0.027045 -2.001443
v 1.009307 0.026903 -1.993619
v 1.001375 0.026767 -1.974701
v 0.993233 0.007842 -1.982467
v 0.973810 0.000005 -2.001444
v 0.981890 0.000005 -2.020964
v 1.001375 0.000005 -2.029036
v 1.020548 0.992075 -2.009564
v 1.001375 0.999995 -2.029036
v 0.981704 0.999995 -2.020964
v 0.973548 0.999995 -2.001444
v 0.993167 0.992076 -1.982278
v 1.001374 0.972957 -1.974425
v 1.009308 0.972957 -1.993537
v 1.028433 0.972955 -2.001443
v 0.526027 0.000000 -2.503482
v 0.545379 0.000000 -2.484157
v 0.526008 0.000000 -2.476188
v 0.517980 0.000000 -2.456928
v 0.498671 0.000000 -2.476210
v 0.479363 0.000000 -2.495492
v 0.487367 0.000000 -2.514813
v 0.506676 0.000000 -2.522807
v 0.527527 0.996792 -2.501703
v 0.509252 0.985742 -2.518611
v 0.490397 0.985301 -2.510899
v 0.482592 0.984867 -2.492253
v 0.499628 0.996138 -2.474226
v 0.519442 0.999997 -2.453401
v 0.528082 0.999997 -2.474115
v 0.548927 0.999997 -2.482687
v 0.992002 0.972690 -0.008003
v 1.000012 0.972689 -0.027311
v 0.992012 0.991996 -0.027317
v 0.972698 0.999993 -0.027321
v 0.972691 0.991996 -0.008007
v 0.972689 0.972688 -0.000007
v 0.497957 0.964424 -0.000005
v 0.517368 0.972543 -0.000005
v 0.518024 0.991957 -0.007974
v 0.518681 0.999991 -0.027232
v 0.499453 0.996333 -0.027142
v 0.482986 0.985875 -0.027065
v 0.480916 0.973552 -0.007864
v 0.478439 0.943664 -0.000005
v 0.972685 0.008007 -0.008007
v 0.972698 0.000007 -0.027321
v 0.992012 0.008007 -0.027321
v 1.000012 0.027321 -0.027321
v 0.992000 0.027323 -0.008006
v 0.972679 0.027321 -0.000007
v 0.008923 0.510537 -0.007773
v 0.026128 0.519538 -0.000007
v 0.020883 0.538241 -0.007770
v 0.015542 0.545455 -0.027699
v 0.004066 0.529083 -0.027710
v 0.000019 0.509503 -0.027703
v 0.478649 0.008005 -0.008005
v 0.478653 0.000005 -0.027319
v 0.497967 0.000005 -0.027319
v 0.517281 0.000005 -0.027319
v 0.517275 0.008005 -0.008005
v 0.517273 0.027319 -0.000005
v 0.497959 0.027319 -0.000005
v 0.478645 0.027319 -0.000005
v 0.008014 0.027329 -0.008010
v 0.000020 0.027328 -0.027328
v 0.008021 0.008009 -0.027320
v 0.027334 0.000007 -0.027321
v 0.027340 0.008009 -0.008007
v 0.027328 0.027328 -0.000007
v 2.991989 0.027332 -2.008017
v 2.972669 0.027331 -2.000027
v 2.972674 0.008010 -2.008027
v 2.972679 0.000007 -2.027341
v 2.991993 0.008010 -2.027331
v 2.999993 0.027331 -2.027331
v 2.999995 0.027319 -2.502041
v 2.999995 0.027319 -2.482727
v 2.991994 0.008005 -2.482731
v 2.972681 0.000005 -2.482743
v 2.972681 0.000005 -2.502057
v 2.972681 0.000005 -2.521370
v 2.991994 0.008005 -2.521358
v 2.999995 0.027319 -2.521354
v 2.991993 0.991993 -2.027326
v 2.972679 0.999993 -2.027341
v 2.972677 0.991993 -2.008027
v 2.972679 0.972679 -2.000027
v 2.991992 0.972678 -2.008014
v 2.999993 0.972679 -2.027321
v 2.991993 0.027322 -2.991993
v 2.999993 0.027321 -2.972679
v 2.991993 0.008007 -2.972666
v 2.972679 0.000007 -2.972679
v 2.972688 0.008007 -2.991993
v 2.972679 0.027321 -2.999993
v 2.992096 0.973553 -2.519109
v 2.972814 0.985808 -2.517109
v 2.972844 0.996315 -2.500607
v 2.972856 0.999991 -2.481410
v 2.992052 0.991995 -2.482062
v 2.999995 0.972671 -2.482722
v 2.999995 0.964568 -2.502057
v 2.999995 0.943849 -2.521501
v 2.971914 0.529059 -2.995893
v 2.971932 0.545653 -2.984262
v 2.992104 0.538365 -2.979013
v 2.999993 0.519540 -2.973877
v 2.992101 0.510373 -2.991096
v 2.971927 0.509213 -2.999995
v 0.013558 0.530640 -2.987997
v 0.017631 0.007841 -2.983852
v 1.001259 0.007883 -2.001635
v 1.001202 0.992076 -2.001569
v 0.506688 0.000000 -2.495500
v 0.507776 0.996355 -2.493816
v 0.988455 0.988448 -0.011555
v 0.498664 0.987025 -0.007940
v 0.988452 0.011557 -0.011556
v 0.009278 0.526820 -0.011348
v 0.497962 0.008005 -0.008005
v 0.011559 0.011561 -0.011560
v 2.988440 0.011561 -2.011568
v 2.991994 0.008005 -2.502045
v 2.988441 0.988443 -2.011566
v 2.988444 0.011558 -2.988448
v 2.992059 0.987051 -2.501376
v 2.988476 0.526805 -2.990695
vt 0.827067 0.487574
vt 0.820551 0.008629
vt 0.818615 0.009500
vt 0.905958 0.487369
vt 0.897863 0.482646
vt 0.756423 0.071171
vt 0.471010 0.324800
vt 0.470579 0.170400
vt 0.475002 0.166023
vt 0.625344 0.324416
vt 0.634271 0.328815
vt 0.633898 0.165628
vt 0.696764 0.409489
vt 0.675534 0.091208
vt 0.708471 0.402551
vt 0.714676 0.085350
vt 0.471460 0.488365
vt 0.634621 0.487958
vt 0.708699 0.487788
vt 0.715436 0.487799
vt 0.820224 0.487436
vt 0.388241 0.488571
vt 0.351130 0.027156
vt 0.249549 0.026514
vt 0.827184 0.487420
vt 0.905857 0.487285
vt 0.914773 0.487262
vt 0.240919 0.027150
vt 0.139994 0.027143
vt 0.624511 0.007415
vt 0.461350 0.007822
vt 0.387047 0.008007
vt 0.983902 0.006522
vt 0.910267 0.006706
vt 0.707510 0.007181
vt 0.018386 0.479832
vt 0.121255 0.484928
vt 0.904662 0.006723
vt 0.826035 0.007042
vt 0.818980 0.007055
vt 0.129884 0.472030
vt 0.231053 0.375224
vt 0.351132 0.237836
vt 0.249569 0.240240
vt 0.462547 0.488387
vt 0.746202 0.066803
vt 0.624959 0.170060
vt 0.625708 0.487982
vt 0.240874 0.233734
vt 0.139726 0.137514
vt 0.707705 0.091704
vt 0.982393 0.086045
vt 0.988410 0.487078
vt 0.016259 0.266241
vt 0.119069 0.265499
vt 0.633424 0.007393
vt 0.127790 0.265410
vt 0.229675 0.264112
vt 0.462105 0.329243
vt 0.388034 0.403927
vt 0.470266 0.007801
vt 0.820110 0.484915
vt 0.715281 0.409020
vt 0.714256 0.007172
vt 0.823674 0.486879
vt 0.819099 0.004871
vt 0.826979 0.491950
vt 0.822182 0.005826
vt 0.822182 0.005826
vt 0.820578 0.489678
vt 0.819052 0.004746
vt 0.902038 0.485991
vt 0.751255 0.066922
vt 0.900841 0.488271
vt 0.750773 0.068135
vt 0.906665 0.491735
vt 0.744033 0.063519
vt 0.466601 0.325802
vt 0.466598 0.325803
vt 0.469851 0.166032
vt 0.470259 0.329211
vt 0.466208 0.169447
vt 0.466211 0.169449
vt 0.463283 0.332570
vt 0.475193 0.162685
vt 0.629761 0.325387
vt 0.629758 0.325385
vt 0.632711 0.162268
vt 0.633135 0.332173
vt 0.629368 0.169062
vt 0.629371 0.169061
vt 0.626099 0.328823
vt 0.625692 0.165644
vt 0.384892 0.408127
vt 0.690675 0.407367
vt 0.678692 0.086795
vt 0.388089 0.408344
vt 0.990563 0.086248
vt 0.684786 0.087012
vt 0.696903 0.413998
vt 0.980689 0.082165
vt 0.711878 0.407257
vt 0.711876 0.407255
vt 0.714608 0.080937
vt 0.715447 0.413330
vt 0.711078 0.087002
vt 0.711080 0.087000
vt 0.708530 0.407397
vt 0.707731 0.086873
vt 0.627416 0.492436
vt 0.357222 0.240007
vt 0.630169 0.489715
vt 0.630167 0.489716
vt 0.353451 0.243863
vt 0.632935 0.492422
vt 0.245240 0.240939
vt 0.245240 0.240956
vt 0.708756 0.492233
vt 0.249794 0.246349
vt 0.712079 0.488720
vt 0.712079 0.488720
vt 0.241549 0.242930
vt 0.715788 0.492216
vt 0.464256 0.492842
vt 0.353451 0.020994
vt 0.467008 0.490121
vt 0.467008 0.490121
vt 0.357222 0.024784
vt 0.469774 0.492829
vt 0.133885 0.136179
vt 0.826516 0.491940
vt 0.820949 0.491955
vt 0.136646 0.142661
vt 0.823710 0.489102
vt 0.823708 0.489102
vt 0.988352 0.491538
vt 0.240824 0.021018
vt 0.387640 0.489603
vt 0.991564 0.488099
vt 0.249643 0.020337
vt 0.388323 0.493031
vt 0.245238 0.025817
vt 0.245241 0.025124
vt 0.907551 0.491739
vt 0.133885 0.024831
vt 0.910302 0.487290
vt 0.137670 0.021018
vt 0.913088 0.491725
vt 0.468557 0.003350
vt 0.010067 0.263936
vt 0.465802 0.006067
vt 0.465804 0.006067
vt 0.013846 0.260090
vt 0.463037 0.003364
vt 0.123417 0.264244
vt 0.123416 0.264100
vt 0.387104 0.003553
vt 0.118912 0.259333
vt 0.987815 0.005485
vt 0.383892 0.006988
vt 0.127824 0.259244
vt 0.987133 0.002059
vt 0.631714 0.002944
vt 0.016098 0.486058
vt 0.628963 0.005660
vt 0.628963 0.005660
vt 0.012241 0.482051
vt 0.626197 0.002958
vt 0.235818 0.261706
vt 0.906334 0.002260
vt 0.911870 0.002247
vt 0.231958 0.257916
vt 0.907467 0.006701
vt 0.714571 0.002737
vt 0.129309 0.481188
vt 0.710877 0.006248
vt 0.710879 0.006247
vt 0.121079 0.491259
vt 0.707544 0.002756
vt 0.125563 0.479260
vt 0.125626 0.485848
vt 0.822509 0.007039
vt 0.234187 0.380379
vt 0.819704 0.002476
vt 0.825322 0.002462
vt 0.236936 0.373794
vt 0.822171 0.002470
vt 0.822171 0.002470
vt 0.823718 0.491958
vt 0.740585 0.066213
vt 0.910326 0.491726
vt 0.466202 0.166041
vt 0.466199 0.166039
vt 0.466606 0.329221
vt 0.466609 0.329220
vt 0.629362 0.165634
vt 0.629359 0.165635
vt 0.629766 0.328814
vt 0.629770 0.328816
vt 0.687321 0.083577
vt 0.990555 0.082820
vt 0.688134 0.410804
vt 0.384900 0.411557
vt 0.711071 0.083517
vt 0.711069 0.083519
vt 0.711884 0.410743
vt 0.711887 0.410745
vt 0.630174 0.492430
vt 0.630176 0.492429
vt 0.357222 0.243772
vt 0.712088 0.492225
vt 0.712088 0.492225
vt 0.245240 0.246458
vt 0.245240 0.246458
vt 0.467015 0.492835
vt 0.467015 0.492835
vt 0.357222 0.021018
vt 0.133885 0.140022
vt 0.823717 0.491948
vt 0.823719 0.491947
vt 0.385103 0.493039
vt 0.245241 0.020309
vt 0.245238 0.021018
vt 0.991573 0.491530
vt 0.910326 0.491732
vt 0.133885 0.021018
vt 0.465797 0.003357
vt 0.465795 0.003357
vt 0.010029 0.260117
vt 0.383884 0.003561
vt 0.990353 0.002051
vt 0.123368 0.259301
vt 0.123368 0.259301
vt 0.628956 0.002951
vt 0.628956 0.002951
vt 0.012279 0.485868
vt 0.235780 0.257867
vt 0.909108 0.002253
vt 0.710868 0.002748
vt 0.125682 0.491487
vt 0.125617 0.484736
vt 0.710870 0.002747
vt 0.822499 0.002469
vt 0.236974 0.377700
vn -0.002661 0.007166 -0.999971
vn -0.002581 0.353519 -0.935424
vn 0.002319 0.401969 -0.915650
vn 0.002905 0.008206 -0.999962
vn -0.003504 0.719911 -0.694058
vn 0.003433 0.723152 -0.690681
vn -0.999970 0.007032 -0.003152
vn -0.922352 0.009924 -0.386224
vn -0.922343 -0.019524 -0.385878
vn -0.999922 -0.012118 -0.003181
vn -0.379330 0.010291 -0.925204
vn -0.002670 -0.012162 -0.999923
vn -0.379613 -0.019016 -0.924950
vn -0.693736 0.720220 -0.003751
vn -0.935176 0.354169 -0.003102
vn -0.914744 0.404030 0.001867
vn -0.690267 0.723549 0.002977
vn -0.999964 0.008115 0.002408
vn -0.401976 0.827739 -0.391489
vn -0.394258 0.834178 -0.385626
vn -0.000813 0.729669 -0.683800
vn -0.683438 0.730008 -0.001228
vn -0.000070 -0.998806 -0.048845
vn -0.002497 -0.927765 -0.373157
vn 0.001659 -0.926861 -0.375401
vn 0.002904 -0.999830 -0.018222
vn -0.001657 -0.387826 -0.921731
vn 0.002812 -0.015928 -0.999869
vn 0.001725 -0.386929 -0.922108
vn -0.048664 -0.998815 -0.000094
vn -0.013686 -0.999819 -0.013188
vn -0.000006 -1.000000 -0.000005
vn -0.000008 -1.000000 0.000001
vn 0.000001 -1.000000 -0.000008
vn -0.920807 -0.390013 -0.002086
vn -0.921190 -0.389111 0.001253
vn -0.999869 -0.016016 0.002318
vn -0.369879 -0.929076 -0.002651
vn -0.018208 -0.999830 0.002891
vn -0.372110 -0.928187 0.001424
vn 0.003275 -0.010261 0.999942
vn 0.004690 -0.388774 0.921321
vn 0.001862 -0.386525 0.922277
vn 0.003318 -0.008343 0.999960
vn 0.000506 -0.925282 0.379280
vn 0.000049 -0.999985 0.005514
vn 0.003566 -0.999881 0.015016
vn 0.002204 -0.925099 0.379719
vn 0.999936 -0.010268 0.004688
vn 0.922843 -0.012220 0.384982
vn 0.922845 0.012331 0.384974
vn 0.999936 0.010302 0.004700
vn 0.380310 -0.012411 0.924776
vn 0.003259 0.010257 0.999942
vn 0.380316 0.012295 0.924775
vn 0.005518 -0.999985 0.000056
vn 0.377626 -0.925958 0.001059
vn 0.378073 -0.925772 0.002755
vn 0.014898 -0.999883 0.003573
vn 0.920403 -0.390926 0.005979
vn 0.999954 -0.008353 0.004737
vn 0.921366 -0.388683 0.003213
vn 0.005129 -0.999974 0.005116
vn 0.000005 -1.000000 0.000005
vn 0.000002 -1.000000 0.000006
vn 0.000005 -1.000000 0.000002
vn 0.000049 0.999985 0.005536
vn 0.000508 0.925344 0.379128
vn 0.002203 0.925162 0.379568
vn 0.003569 0.999880 0.015061
vn 0.004723 0.388628 0.921383
vn 0.003318 0.008336 0.999960
vn 0.001861 0.386376 0.922340
vn 0.005564 0.999985 0.000056
vn 0.004992 0.999975 0.005001
vn -0.006572 0.999962 -0.005662
vn -0.023537 0.999723 -0.000044
vn -0.000015 0.999759 -0.021964
vn 0.920516 0.390660 0.005983
vn 0.921486 0.388399 0.003147
vn 0.999954 0.008385 0.004736
vn 0.377612 0.925963 0.001017
vn 0.015026 0.999881 0.003584
vn 0.378067 0.925774 0.002691
vn 0.000002 -1.000000 -0.000001
vn 0.003246 -0.999995 -0.000001
vn 0.003592 -0.999994 0.000006
vn 0.002972 -0.999996 -0.000008
vn -0.000001 -1.000000 0.000002
vn -0.000001 -0.999995 0.003243
vn -0.000008 -0.999996 0.002966
vn 0.000006 -0.999994 0.003587
vn -0.000871 0.887862 -0.460109
vn 0.003590 0.929077 -0.369868
vn 0.002589 0.731160 -0.682202
vn 0.003676 0.999961 -0.008025
vn -0.459558 0.888147 -0.001211
vn -0.375099 0.926980 0.003147
vn -0.008772 0.999955 0.003662
vn -0.681874 0.731466 0.002125
vn 0.923905 0.005143 0.382588
vn 0.923905 -0.005150 0.382588
vn 0.381945 0.005143 0.924171
vn 0.016739 0.008158 0.999827
vn 0.016736 -0.008180 0.999827
vn 0.381945 -0.005151 0.924171
vn 0.010460 0.380114 0.924881
vn -0.004301 0.380412 0.924807
vn -0.000140 0.008278 0.999966
vn 0.010548 0.923871 0.382559
vn -0.009101 0.922988 0.384722
vn -0.007382 0.010332 0.999919
vn -0.000000 -0.008360 0.999965
vn 0.000003 -0.008295 0.999966
vn -0.024292 0.025803 0.999372
vn -0.000004 -0.010901 0.999941
vn -0.265193 0.282585 0.921856
vn -0.268405 0.280428 0.921585
vn -0.010982 0.005406 0.999925
vn -0.631199 0.671837 0.387586
vn -0.635712 0.667879 0.387051
vn 0.010513 -0.924311 0.381497
vn 0.000004 -0.923879 0.382685
vn 0.010523 -0.381485 0.924315
vn 0.000004 -0.382683 0.923880
vn -0.398260 0.003758 0.917265
vn -0.394774 -0.010678 0.918716
vn -0.011704 -0.011027 0.999871
vn -0.918861 0.005533 0.394543
vn -0.919088 -0.008820 0.393955
vn -0.000006 -0.923863 0.382723
vn -0.010614 -0.924299 0.381521
vn -0.000008 -0.382644 0.923896
vn -0.010615 -0.381439 0.924333
vn 0.381597 -0.005151 0.924314
vn 0.381597 0.005143 0.924314
vn 0.924036 -0.005152 0.382271
vn 0.999826 -0.008177 0.016745
vn 0.999827 0.008142 0.016747
vn 0.924036 0.005144 0.382271
vn 0.924332 -0.381443 0.010533
vn 0.923897 -0.382642 0.000010
vn 0.999966 -0.008296 0.000004
vn 0.381552 -0.924287 0.010535
vn 0.382748 -0.923853 0.000007
vn 0.999965 -0.008375 0.000000
vn 0.999919 0.010339 -0.007437
vn 0.999966 0.008267 -0.000138
vn 0.999941 -0.010898 -0.000004
vn 0.999359 0.026055 -0.024541
vn 0.923873 -0.382698 -0.000005
vn 0.924310 -0.381494 -0.010604
vn 0.999870 -0.011022 -0.011789
vn 0.382686 -0.923878 -0.000005
vn 0.381486 -0.924314 -0.010602
vn 0.382378 0.923944 0.010672
vn 0.384499 0.923081 -0.009106
vn 0.924809 0.380285 0.010583
vn 0.924719 0.380626 -0.004224
vn 0.917677 -0.010550 -0.397188
vn 0.916141 0.003938 -0.400836
vn 0.999924 0.005441 -0.011035
vn 0.391997 -0.008587 -0.919926
vn 0.392406 0.005867 -0.919774
vn 0.384627 0.672647 -0.632145
vn 0.384031 0.668653 -0.636729
vn 0.920164 0.285364 -0.268077
vn 0.919825 0.283355 -0.271354
vn -0.330519 0.482270 -0.811279
vn -0.804465 0.487928 -0.338765
vn -0.334818 -0.495791 -0.801304
vn -0.190155 -0.964230 -0.184664
vn -0.801182 -0.498818 -0.330586
vn 0.195672 -0.960942 0.195711
vn 0.334438 -0.482387 0.809601
vn 0.807663 -0.484423 0.336177
vn 0.334707 0.482002 0.809719
vn 0.194977 0.960931 0.196456
vn 0.807895 0.484213 0.335922
vn -0.000000 -1.000000 0.000001
vn -0.221939 0.953635 -0.203282
vn 0.325111 0.325382 0.887936
vn 0.887721 0.325386 0.325692
vn 0.325119 0.887960 0.325308
vn -0.174085 0.332772 0.926799
vn -0.395108 0.828305 0.397241
vn 0.325169 -0.325199 0.887981
vn 0.325253 -0.887853 0.325464
vn 0.887759 -0.325202 0.325774
vn -0.851971 0.367704 0.372746
vn -0.482590 0.208245 0.850730
vn -0.000000 -0.382682 0.923880
vn -0.000000 -0.923879 0.382685
vn -0.325291 -0.325268 0.887911
vn -0.888141 -0.325038 0.324893
vn -0.325237 -0.887902 0.325347
vn 0.887894 -0.325145 0.325460
vn 0.324809 -0.325143 0.888133
vn 0.325202 -0.887877 0.325449
vn 0.923876 -0.382691 0.000000
vn 0.382683 -0.923880 -0.000000
vn 0.887838 0.325333 0.325428
vn 0.325064 0.887972 0.325330
vn 0.324745 0.325340 0.888085
vn 0.325265 -0.325075 -0.887991
vn 0.887954 -0.325322 -0.325121
vn 0.325435 -0.887932 -0.325068
vn 0.925992 0.333938 -0.176135
vn 0.395219 0.827874 -0.398029
vn 0.367794 0.368493 -0.853780
vn 0.846598 0.210862 -0.488680
s 1
g InsideCornerHP
usemtl initialShadingGroup
f 2/1/1 1/65/2 123/182/3 128/39/4
f 1/65/2 8/62/5 124/40/6 123/182/3
f 4/2/7 3/66/8 15/77/9 14/46/10
f 3/67/11 2/1/1 16/4/12 15/76/13
f 6/3/14 5/68/15 73/135/16 72/21/17
f 5/69/15 4/2/7 74/25/18 73/134/16
f 8/62/5 7/70/19 43/105/20 42/63/21
f 7/71/19 6/3/14 44/16/22 43/104/20
s 4
f 10/5/23 9/72/24 113/173/25 112/34/26
s 1
f 9/72/27 16/4/12 114/38/28 113/173/29
s 4
f 12/6/30 11/73/31 39/101/32 38/52/33
f 11/74/31 10/5/23 40/13/34 39/100/32
s 1
f 14/46/10 13/75/35 85/146/36 84/26/37
s 4
f 13/75/38 12/6/30 86/27/39 85/146/40
s 6
f 18/7/41 17/78/42 91/152/43 90/61/44
s 4
f 17/79/45 24/59/46 92/31/47 91/151/48
s 8
f 20/8/49 19/80/50 31/93/51 30/47/52
s 6
f 19/81/53 18/7/41 32/10/54 31/92/55
s 4
f 22/9/56 21/82/57 65/127/58 64/45/59
s 8
f 21/83/60 20/8/49 66/17/61 65/126/62
s 4
f 24/59/46 23/84/63 35/97/64 34/60/65
f 23/85/63 22/9/56 36/14/66 35/96/64
s 1
f 26/11/67 25/86/68 105/166/69 104/56/70
s 6
f 25/87/71 32/10/54 106/30/72 105/165/73
s 1
f 28/12/74 27/88/75 47/109/76 46/51/77
f 27/89/75 26/11/67 48/15/78 47/108/76
s 8
f 30/47/52 29/90/79 51/113/80 50/48/81
s 1
f 29/91/82 28/12/74 52/18/83 51/112/84
s 4
f 34/60/65 33/94/85 99/160/86 98/32/87
f 33/95/85 40/13/34 100/33/88 99/159/86
f 38/52/33 37/98/89 77/139/90 76/53/91
f 37/99/89 36/14/66 78/22/92 77/138/90
s 1
f 42/63/21 41/102/93 117/177/94 116/64/95
f 41/103/93 48/15/78 118/35/96 117/176/94
f 46/51/77 45/106/97 59/121/98 58/19/99
f 45/107/97 44/16/22 60/20/100 59/120/98
s 8
f 50/48/81 49/110/101 67/129/102 66/17/61
s 12
f 49/111/103 54/43/104 68/23/105 67/128/106
f 54/43/104 53/114/107 57/119/108 56/44/109
s 1
f 53/115/110 52/18/83 58/19/99 57/118/111
s 12
f 56/44/109 55/116/112 81/143/113 80/24/114
f 55/117/112 62/49/115 82/28/116 81/142/113
f 62/49/115 61/122/117 71/133/118 70/50/119
s 1
f 61/123/120 60/20/100 72/21/17 71/132/121
s 4
f 64/45/59 63/124/122 79/141/123 78/22/92
s 12
f 63/125/124 68/23/105 80/24/114 79/140/125
f 70/50/119 69/130/126 83/145/127 88/29/128
s 1
f 69/131/129 74/25/18 84/26/37 83/144/130
s 4
f 76/53/91 75/136/131 87/148/132 86/27/39
s 12
f 75/137/133 82/28/116 88/29/128 87/147/134
s 6
f 90/61/44 89/149/135 107/168/136 106/30/72
s 13
f 89/150/137 94/54/138 108/36/139 107/167/140
f 94/54/138 93/153/141 97/158/142 96/55/143
s 4
f 93/154/144 92/31/47 98/32/87 97/157/145
s 13
f 96/55/143 95/155/146 121/181/147 120/37/148
f 95/156/146 102/57/149 122/41/150 121/180/147
f 102/57/149 101/161/151 111/172/152 110/58/153
s 4
f 101/162/154 100/33/88 112/34/26 111/171/155
s 1
f 104/56/70 103/163/156 119/179/157 118/35/96
s 13
f 103/164/158 108/36/139 120/37/148 119/178/159
f 110/58/153 109/169/160 127/186/161 126/42/162
s 1
f 109/170/163 114/38/28 128/39/4 127/185/164
f 116/64/95 115/174/165 125/184/166 124/40/6
s 13
f 115/175/167 122/41/150 126/42/162 125/183/168
s 12
f 54/43/104 56/44/109 80/24/114 68/23/105
s 4
f 64/45/59 78/22/92 36/14/66 22/9/56
s 1
f 14/46/10 84/26/37 74/25/18 4/2/7
s 8
f 66/17/61 20/8/49 30/47/52 50/48/81
s 1
f 60/20/100 44/16/22 6/3/14 72/21/17
s 12
f 82/28/116 62/49/115 70/50/119 88/29/128
s 1
f 52/18/83 28/12/74 46/51/77 58/19/99
s 4
f 12/6/30 38/52/33 76/53/91 86/27/39
s 13
f 94/54/138 96/55/143 120/37/148 108/36/139
s 1
f 104/56/70 118/35/96 48/15/78 26/11/67
s 13
f 122/41/150 102/57/149 110/58/153 126/42/162
s 4
f 100/33/88 40/13/34 10/5/23 112/34/26
f 92/31/47 24/59/46 34/60/65 98/32/87
s 6
f 106/30/72 32/10/54 18/7/41 90/61/44
s 1
f 124/40/6 8/62/5 42/63/21 116/64/95
f 114/38/28 16/4/12 2/1/1 128/39/4
f 7/70/19 8/62/5 1/65/2 129/189/169
f 1/65/2 2/1/1 3/67/11 129/189/169
f 3/66/8 4/2/7 5/69/15 129/187/170
f 5/68/15 6/3/14 7/71/19 129/188/170
f 15/76/13 16/4/12 9/72/27 130/191/171
s 4
f 9/72/24 10/5/23 11/74/31 130/191/172
f 11/73/31 12/6/30 13/75/38 130/190/172
s 1
f 13/75/35 14/46/10 15/77/9 130/190/173
s 4
f 23/84/63 24/59/46 17/79/45 131/194/174
s 6
f 17/78/42 18/7/41 19/81/53 131/195/175
s 8
f 19/80/50 20/8/49 21/83/60 131/192/176
s 4
f 21/82/57 22/9/56 23/85/63 131/193/174
s 6
f 31/92/55 32/10/54 25/87/71 132/198/177
s 1
f 25/86/68 26/11/67 27/89/75 132/199/178
f 27/88/75 28/12/74 29/91/82 132/196/178
s 8
f 29/90/79 30/47/52 31/93/51 132/197/179
s 4
f 39/100/32 40/13/34 33/95/85 133/202/180
f 33/94/85 34/60/65 35/97/64 133/203/180
f 35/96/64 36/14/66 37/99/89 133/200/180
f 37/98/89 38/52/33 39/101/32 133/201/180
s 1
f 47/108/76 48/15/78 41/103/93 134/206/181
f 41/102/93 42/63/21 43/105/20 134/207/181
f 43/104/20 44/16/22 45/107/97 134/204/181
f 45/106/97 46/51/77 47/109/76 134/205/181
s 12
f 53/114/107 54/43/104 49/111/103 135/210/182
s 8
f 49/110/101 50/48/81 51/113/80 135/208/183
s 1
f 51/112/84 52/18/83 53/115/110 135/209/184
s 12
f 61/122/117 62/49/115 55/117/112 136/213/185
f 55/116/112 56/44/109 57/119/108 136/214/185
s 1
f 57/118/111 58/19/99 59/121/98 136/211/186
f 59/120/98 60/20/100 61/123/120 136/212/186
s 12
f 67/128/106 68/23/105 63/125/124 137/217/187
s 4
f 63/124/122 64/45/59 65/127/58 137/215/188
s 8
f 65/126/62 66/17/61 67/129/102 137/216/189
s 1
f 73/134/16 74/25/18 69/131/129 138/220/190
s 12
f 69/130/126 70/50/119 71/133/118 138/218/191
s 1
f 71/132/121 72/21/17 73/135/16 138/219/190
s 12
f 81/142/113 82/28/116 75/137/133 139/223/192
s 4
f 75/136/131 76/53/91 77/139/90 139/224/193
f 77/138/90 78/22/92 79/141/123 139/221/193
s 12
f 79/140/125 80/24/114 81/143/113 139/222/192
f 87/147/134 88/29/128 83/145/127 140/226/194
s 1
f 83/144/130 84/26/37 85/146/36 140/225/195
s 4
f 85/146/40 86/27/39 87/148/132 140/225/196
s 13
f 93/153/141 94/54/138 89/150/137 141/229/197
s 6
f 89/149/135 90/61/44 91/152/43 141/227/198
s 4
f 91/151/48 92/31/47 93/154/144 141/228/199
s 13
f 101/161/151 102/57/149 95/156/146 142/232/200
f 95/155/146 96/55/143 97/158/142 142/233/200
s 4
f 97/157/145 98/32/87 99/160/86 142/230/201
f 99/159/86 100/33/88 101/162/154 142/231/201
s 13
f 107/167/140 108/36/139 103/164/158 143/236/202
s 1
f 103/163/156 104/56/70 105/166/69 143/234/203
s 6
f 105/165/73 106/30/72 107/168/136 143/235/204
s 1
f 113/173/29 114/38/28 109/170/163 144/238/205
s 13
f 109/169/160 110/58/153 111/172/152 144/237/206
s 4
f 111/171/155 112/34/26 113/173/25 144/238/207
s 13
f 121/180/147 122/41/150 115/175/167 145/241/208
s 1
f 115/174/165 116/64/95 117/177/94 145/242/209
f 117/176/94 118/35/96 119/179/157 145/239/209
s 13
f 119/178/159 120/37/148 121/181/147 145/240/208
s 1
f 127/185/164 128/39/4 123/182/3 146/243/210
f 123/182/3 124/40/6 125/184/166 146/243/210
s 13
f 125/183/168 126/42/162 127/186/161 146/244/211
